<?xml version="1.0" encoding="utf-8"?>
<!-- Generator: Adobe Illustrator 22.0.1, SVG Export Plug-In . SVG Version: 6.00 Build 0)  -->
<svg version="1.1" id="Calque_1" xmlns="http://www.w3.org/2000/svg" xmlns:xlink="http://www.w3.org/1999/xlink" x="0px" y="0px"
	 viewBox="0 0 189 50" style="enable-background:new 0 0 189 50;" xml:space="preserve">
<style type="text/css">
	.st0{fill:#55D6CB;}
</style>
<title>logo</title>
<desc>Created with Sketch.</desc>
<g id="home" transform="translate(-626.000000, -50.000000)">
	<g id="logo" transform="translate(626.000000, 50.000000)">
		<path id="Shape" class="st0" d="M5.2,31.5c-1-0.3-2.1-0.7-3-1.1C0.7,29.7,0,28,0.7,26.5l0.1-0.1c0.3-0.7,0.9-1.3,1.7-1.6
			c0.7-0.3,1.6-0.2,2.3,0.1c0.7,0.3,1.4,0.6,2.2,0.9c1.8,0.6,3.7,0.9,5.6,0.9c2.1,0,3.6-0.3,4.6-0.9c1-0.6,1.5-1.4,1.5-2.4
			c0-0.7-0.3-1.4-0.9-1.9c-0.7-0.5-1.4-0.9-2.3-1.2c-0.9-0.3-2.1-0.6-3.7-1c-2-0.5-4-1-5.9-1.7C4.3,17,2.9,16,1.9,14.8
			c-1.1-1.3-1.6-2.9-1.6-5c0-1.8,0.5-3.5,1.5-5c1-1.5,2.5-2.7,4.5-3.5S10.6,0,13.5,0c2,0,4,0.2,5.9,0.7c0.8,0.2,1.6,0.4,2.4,0.7
			C22.4,1.7,23,2.3,23.3,3c0.3,0.7,0.3,1.5,0,2.3l0,0.1C22.7,6.9,21,7.6,19.5,7c-1.9-0.8-4-1.2-6.1-1.2c-2,0-3.5,0.3-4.5,1
			S7.4,8.4,7.4,9.4c0,1.1,0.6,1.9,1.7,2.4s2.8,1,5.1,1.5c2,0.5,4,1,5.9,1.7c1.5,0.6,2.9,1.5,3.9,2.7c1.1,1.2,1.6,2.9,1.6,5
			c0,1.8-0.5,3.5-1.5,4.9c-1,1.5-2.5,2.7-4.5,3.5c-2,0.9-4.5,1.3-7.3,1.3C9.9,32.5,7.5,32.2,5.2,31.5z"/>
		<path id="Shape_1_" class="st0" d="M62,28.6l0-15.5l-8.4,14.1c-0.5,0.9-1.5,1.4-2.5,1.4c-1,0-2-0.5-2.5-1.4l-8.4-13.7v15
			c0,0.9-0.4,1.8-1,2.4c-0.6,0.6-1.5,1-2.4,1c-1.9,0-3.4-1.5-3.4-3.4V4.2c0-2,1.6-3.6,3.6-3.6h0.1c1.4,0,2.8,0.8,3.5,2l10,16.6
			c0.1,0.2,0.3,0.3,0.6,0.3c0.2,0,0.4-0.1,0.6-0.3l9.8-16.6c0.7-1.3,2.1-2,3.5-2c2,0,3.6,1.6,3.6,3.6l0.1,24.4c0,0.9-0.4,1.8-1,2.4
			c-0.6,0.6-1.5,1-2.4,1C63.5,32,62,30.5,62,28.6z"/>
		<path id="Shape_2_" class="st0" d="M95.3,7.7c1,0,1.9,0.4,2.6,1.1c0.7,0.7,1.1,1.6,1.1,2.6V25c0,0.6,0.5,1.1,1.1,1.1h11.7
			c1.6,0,3,1.3,3,3c0,1.6-1.3,3-3,3H95.3c-1,0-1.9-0.4-2.6-1.1c-0.7-0.7-1.1-1.6-1.1-2.6v-17C91.6,9.3,93.3,7.7,95.3,7.7z"/>
		<path id="Shape_3_" class="st0" d="M80.2,0.5c2,0,3.6,1.6,3.6,3.6v14.6c0,2-1.6,3.6-3.6,3.6c-2,0-3.6-1.6-3.6-3.6V4.2
			c0-1,0.4-1.9,1.1-2.6C78.3,0.9,79.3,0.5,80.2,0.5z"/>
		<path id="Shape_4_" class="st0" d="M122.7,0.5c2,0,3.6,1.6,3.6,3.6v14.6c0,2-1.6,3.6-3.6,3.6c-2,0-3.6-1.6-3.6-3.6V4.2
			C119.1,2.2,120.7,0.5,122.7,0.5z"/>
		<path id="Shape_5_" class="st0" d="M141.4,7.5v6.1c0,0.6,0.5,1.1,1.1,1.1H153c0.8,0,1.5,0.3,2.1,0.9c0.5,0.5,0.9,1.3,0.9,2.1
			c0,0.8-0.3,1.5-0.9,2.1s-1.3,0.9-2.1,0.9h-10.5c-0.6,0-1.1,0.5-1.1,1.1v6.7c0,2-1.6,3.6-3.6,3.6c-1,0-1.9-0.4-2.6-1.1
			s-1.1-1.6-1.1-2.6V4.2c0-2,1.6-3.6,3.6-3.6h17.2c0.8,0,1.5,0.3,2.1,0.9s0.9,1.3,0.9,2.1c0,1.6-1.3,2.9-2.9,2.9h-12.5
			C141.9,6.4,141.4,6.9,141.4,7.5z"/>
		<path id="Shape_6_" class="st0" d="M178.2,20.8v7.5c0,2-1.6,3.6-3.6,3.6c-1,0-1.9-0.4-2.6-1.1c-0.7-0.7-1.1-1.6-1.1-2.6v-7.6
			l-9.4-15.6c-0.6-0.9-0.6-2.1,0-3.1c0.5-1,1.6-1.6,2.7-1.6h0.6c1.1,0,2.1,0.6,2.6,1.5l6.9,11.6c0.1,0.2,0.3,0.3,0.6,0.3
			s0.4-0.1,0.6-0.3L182.4,2c0.6-0.9,1.5-1.5,2.6-1.5c1.1,0,2.1,0.6,2.7,1.6c0.5,1,0.5,2.1,0,3.1L178.2,20.8z"/>
		<path id="Shape_7_" class="st0" d="M101.5,49.9c-12.8,0-22-4.5-26.3-7.3c-1.2-0.7-1.8-1.9-1.8-3.2c0-1.3,0.8-2.5,2-3.1
			s2.6-0.5,3.7,0.2c3,1.9,11,6.2,22.5,6.2h0.1c11.4,0,19.5-4.3,22.4-6.2c1.7-1.1,3.9-0.6,5,1.1c1.1,1.7,0.6,3.9-1.1,5
			C123.5,45.3,114.4,49.9,101.5,49.9L101.5,49.9z"/>
	</g>
</g>
</svg>
