<?xml version="1.0" encoding="UTF-8"?>
<svg width="189px" height="50px" viewBox="0 0 189 50" version="1.1" xmlns="http://www.w3.org/2000/svg" xmlns:xlink="http://www.w3.org/1999/xlink">
    <!-- Generator: Sketch 48.2 (47327) - http://www.bohemiancoding.com/sketch -->
    <title>logo</title>
    <desc>Created with Sketch.</desc>
    <defs></defs>
    <g id="home" stroke="none" stroke-width="1" fill="none" fill-rule="evenodd" transform="translate(-626.000000, -50.000000)">
        <g id="logo" transform="translate(626.000000, 50.000000)" fill="#4A4A4A" fill-rule="nonzero">
            <path d="M5.17748918,31.5 C4.13525219,31.2022496 3.11657572,30.8274808 2.12987013,30.3787879 C0.653251299,29.7039031 -0.00137658812,27.9633859 0.664502165,26.482684 L0.716450216,26.3679654 C1.04568888,25.647661 1.6497608,25.0892701 2.39368013,24.8175708 C3.13759947,24.5458714 3.95935764,24.5835108 4.67532468,24.9220779 C5.38619204,25.2495186 6.11624528,25.5335889 6.86147186,25.7727273 C8.65950914,26.3614953 10.5387674,26.6646015 12.4307359,26.6709957 C14.495671,26.6709957 16.0223665,26.3636364 17.0108225,25.7489177 C17.9992785,25.1341991 18.492785,24.3189033 18.491342,23.3030303 C18.5052376,22.5816131 18.1858187,21.894064 17.6255411,21.4393939 C16.9573471,20.9004085 16.190534,20.496784 15.3679654,20.2510823 C14.4559885,19.952381 13.2222222,19.6233766 11.6666667,19.2640693 C9.67330263,18.8127248 7.70874895,18.2424404 5.78354978,17.5562771 C4.26260075,16.9922966 2.9105122,16.0499319 1.85497835,14.8181818 C0.762626263,13.5613276 0.216450216,11.8845599 0.216450216,9.78787879 C0.198394152,8.02242128 0.715298648,6.29286638 1.6991342,4.82683983 C2.68614719,3.34054834 4.17532468,2.16450216 6.16666667,1.2987013 C8.15800866,0.432900433 10.5901876,9.11769643e-15 13.4632035,9.11769643e-15 C15.4455631,-0.00237618583 17.4206958,0.238972391 19.3441558,0.718614719 C20.1443466,0.916656029 20.9315564,1.16387893 21.7012987,1.45887446 C22.4338499,1.74665455 23.020392,2.31619307 23.3295915,3.03996402 C23.638791,3.76373496 23.644817,4.58127355 23.3463203,5.30952381 L23.3051948,5.41125541 C22.6983725,6.9072963 20.9991853,7.63469137 19.4978355,7.04112554 C17.5662467,6.2598181 15.5035131,5.85358888 13.4199134,5.84415584 C11.3823954,5.84415584 9.87806638,6.17316017 8.90692641,6.83116883 C7.93578644,7.48917749 7.44949495,8.35497835 7.44805195,9.42857143 C7.44805195,10.5064935 8.00937951,11.3073593 9.13203463,11.8311688 C10.2546898,12.3549784 11.968254,12.8715729 14.2727273,13.3809524 C16.2649447,13.8331017 18.2286881,14.4026379 20.1536797,15.0865801 C21.6658246,15.6463022 23.0156127,16.5721898 24.0822511,17.7813853 C25.1760462,19.0079365 25.7222222,20.6673882 25.7207792,22.7597403 C25.7300458,24.5146211 25.2012502,26.230185 24.2056277,27.6753247 C23.2113997,29.1630592 21.7085137,30.3405483 19.6969697,31.2077922 C17.6854257,32.0750361 15.2460317,32.5079365 12.3787879,32.5064935 C9.94282028,32.513469 7.51819738,32.1745902 5.17748918,31.5 Z" id="Shape"></path>
            <path d="M61.9935065,28.5714286 L61.95671,13.1168831 L53.5497835,27.2316017 C53.0269839,28.1096916 52.0803815,28.6475525 51.0584416,28.6471861 C50.0466988,28.6472624 49.1081458,28.1197366 48.5822511,27.2554113 L40.2229437,13.5151515 L40.2229437,28.5584416 C40.2235184,29.4633388 39.8643039,30.3313389 39.2244448,30.971198 C38.5845857,31.6110572 37.7165856,31.9702717 36.8116883,31.969697 C34.927704,31.969697 33.4004329,30.4424259 33.4004329,28.5584416 L33.4004329,4.17532468 C33.4004329,2.16701649 35.0284884,0.538961039 37.0367965,0.538961039 L37.0909091,0.538961039 C38.5354488,0.537715128 39.8747298,1.29445 40.6190476,2.53246753 L50.6212121,19.1406926 C50.7384391,19.3367973 50.9501,19.4568664 51.1785714,19.4568664 C51.4070428,19.4568664 51.6187038,19.3367973 51.7359307,19.1406926 L61.5692641,2.56060606 C62.3104279,1.3087999 63.6577895,0.541700921 65.1125541,0.543290043 C67.1171354,0.542090441 68.7441425,2.16425522 68.7489177,4.16883117 L68.8181818,28.5541126 C68.8210595,29.4605086 68.4628619,30.3307361 67.8227527,30.9724699 C67.1826435,31.6142037 66.3133268,31.974606 65.4069264,31.974026 C63.5254733,31.9752258 61.9982814,30.452876 61.9935065,28.5714286 Z" id="Shape"></path>
            <path d="M95.2705628,7.68181818 C96.2368601,7.67894228 97.1645662,8.0607881 97.8488592,8.74305052 C98.5331522,9.42531294 98.9177532,10.3518802 98.9177489,11.3181818 L98.9177489,24.9545455 C98.9177489,25.5522562 99.4022892,26.0367965 100,26.0367965 L111.71645,26.0367965 C113.350445,26.0427627 114.671229,27.370325 114.668831,29.004329 C114.668831,30.6408611 113.34216,31.9675325 111.705628,31.9675325 L95.2705628,31.9675325 C94.3061392,31.9675325 93.3812159,31.5844167 92.6992654,30.9024662 C92.0173149,30.2205158 91.6341991,29.2955924 91.6341991,28.3311688 L91.6341991,11.3181818 C91.6341991,9.30987364 93.2622546,7.68181818 95.2705628,7.68181818 Z" id="Shape"></path>
            <path d="M80.2294372,0.538961039 C82.2380958,0.538960684 83.8667704,2.16666642 83.8679654,4.17532468 L83.8679654,18.8095238 C83.8667704,20.8181821 82.2380958,22.4458878 80.2294372,22.4458874 C78.221129,22.4458874 76.5930736,20.817832 76.5930736,18.8095238 L76.5930736,4.17532468 C76.5930736,3.21090108 76.9761894,2.28597776 77.6581398,1.60402729 C78.3400903,0.922076822 79.2650136,0.538961039 80.2294372,0.538961039 Z" id="Shape"></path>
            <path d="M122.703463,0.538961039 C124.712122,0.538960684 126.340796,2.16666642 126.341991,4.17532468 L126.341991,18.8095238 C126.340796,20.8181821 124.712122,22.4458878 122.703463,22.4458874 C120.695155,22.4458874 119.0671,20.817832 119.0671,18.8095238 L119.0671,4.17532468 C119.0671,2.16701649 120.695155,0.538961039 122.703463,0.538961039 Z" id="Shape"></path>
            <path d="M141.383117,7.45887446 L141.383117,13.6017316 C141.383117,14.1994424 141.867657,14.6839827 142.465368,14.6839827 L153.010823,14.6839827 C153.785033,14.6834083 154.52773,14.9905596 155.075382,15.5378059 C155.623034,16.0850522 155.930736,16.8275213 155.930736,17.6017316 C155.930736,18.3759419 155.623034,19.118411 155.075382,19.6656573 C154.52773,20.2129036 153.785033,20.5200549 153.010823,20.5194805 L142.465368,20.5194805 C141.867657,20.5194805 141.383117,21.0040208 141.383117,21.6017316 L141.383117,28.3333333 C141.381922,30.3419916 139.753247,31.9696973 137.744589,31.969697 C136.780165,31.969697 135.855242,31.5865812 135.173291,30.9046307 C134.491341,30.2226803 134.108225,29.2977569 134.108225,28.3333333 L134.108225,4.17532468 C134.108225,2.16701649 135.736281,0.538961039 137.744589,0.538961039 L154.943723,0.538961039 C155.718508,0.539534527 156.4613,0.848015022 157.008546,1.3964793 C157.555792,1.94494359 157.862621,2.6884194 157.861472,3.46320346 C157.861472,5.0749822 156.555501,6.38192209 154.943723,6.38311688 L142.465368,6.38311688 C141.870184,6.38310617 141.386688,6.86370112 141.383117,7.45887446 Z" id="Shape"></path>
            <path d="M178.201299,20.8354978 L178.201299,28.3333333 C178.200104,30.3419916 176.571429,31.9696973 174.562771,31.969697 C173.598347,31.969697 172.673424,31.5865812 171.991473,30.9046307 C171.309523,30.2226803 170.926407,29.2977569 170.926407,28.3333333 L170.926407,20.7445887 L161.549784,5.17532468 C160.980917,4.23078413 160.9645,3.05316119 161.506814,2.09312958 C162.049129,1.13309798 163.066213,0.539292433 164.168831,0.538961039 L164.751082,0.538961039 C165.824576,0.538551042 166.819582,1.10137423 167.372294,2.02164502 L174.320346,13.5779221 C174.437573,13.7740267 174.649234,13.8940958 174.877706,13.8940958 C175.106177,13.8940958 175.317838,13.7740267 175.435065,13.5779221 L182.383117,2.02164502 C182.936449,1.10201084 183.931061,0.539410386 185.004329,0.538961039 C186.106649,0.538981653 187.123674,1.1321829 187.666374,2.09165488 C188.209074,3.05112685 188.193474,4.22840517 187.625541,5.17316017 L178.201299,20.8354978 Z" id="Shape"></path>
            <path d="M101.465368,49.8852814 C88.6168831,49.8852814 79.4675325,45.3398268 75.1515152,42.6190476 C73.9995655,41.9566209 73.3023098,40.7170799 73.3343712,39.3886337 C73.3664325,38.0601875 74.122673,36.8557259 75.3052375,36.2496414 C76.4878021,35.643557 77.9071792,35.7329777 79.004329,36.482684 C81.9545455,38.3333333 90.025974,42.6406926 101.467532,42.6406926 L101.534632,42.6406926 C112.943723,42.6255411 120.991342,38.3333333 123.919913,36.4891775 C125.614423,35.4222639 127.853,35.9310313 128.919913,37.6255412 C129.986827,39.3200512 129.47806,41.5586274 127.78355,42.6255411 C123.484848,45.3311688 114.363636,49.8744589 101.545455,49.8917749 L101.465368,49.8852814 Z" id="Shape"></path>
        </g>
    </g>
</svg>